solid OpenSCAD_Model
  facet normal -1 0 0
    outer loop
      vertex 2 -4.5 0
      vertex 2 4.5 4
      vertex 2 4.5 0
    endloop
  endfacet
  facet normal -1 -0 0
    outer loop
      vertex 2 4.5 4
      vertex 2 -4.5 0
      vertex 2 -4.5 4
    endloop
  endfacet
  facet normal 1 -0 0
    outer loop
      vertex 10 -4.5 4
      vertex 10 4.5 0
      vertex 10 4.5 4
    endloop
  endfacet
  facet normal 1 0 0
    outer loop
      vertex 10 4.5 0
      vertex 10 -4.5 4
      vertex 10 -4.5 0
    endloop
  endfacet
  facet normal -0 0 1
    outer loop
      vertex 2 4.5 4
      vertex 10 -4.5 4
      vertex 10 4.5 4
    endloop
  endfacet
  facet normal 0 0 1
    outer loop
      vertex 10 -4.5 4
      vertex 2 4.5 4
      vertex 2 -4.5 4
    endloop
  endfacet
  facet normal 0 1 -0
    outer loop
      vertex 10 4.5 0
      vertex 2 4.5 4
      vertex 10 4.5 4
    endloop
  endfacet
  facet normal 0 1 0
    outer loop
      vertex 2 4.5 4
      vertex 10 4.5 0
      vertex 2 4.5 0
    endloop
  endfacet
  facet normal 0 0 -1
    outer loop
      vertex 2 -4.5 0
      vertex 10 4.5 0
      vertex 10 -4.5 0
    endloop
  endfacet
  facet normal -0 0 -1
    outer loop
      vertex 10 4.5 0
      vertex 2 -4.5 0
      vertex 2 4.5 0
    endloop
  endfacet
  facet normal 0 -1 0
    outer loop
      vertex 2 -4.5 0
      vertex 10 -4.5 4
      vertex 2 -4.5 4
    endloop
  endfacet
  facet normal 0 -1 -0
    outer loop
      vertex 10 -4.5 4
      vertex 2 -4.5 0
      vertex 10 -4.5 0
    endloop
  endfacet
endsolid OpenSCAD_Model
